<svg xmlns="http://www.w3.org/2000/svg" xmlns:xlink="http://www.w3.org/1999/xlink" width="1920" zoomAndPan="magnify" viewBox="0 0 1440 809.999993" height="1080" preserveAspectRatio="xMidYMid meet" version="1.0"><defs><g/></defs><g fill="#000000" fill-opacity="1"><g transform="translate(180.406579, 480.53293)"><g><path d="M 47.765625 -25.703125 C 49.253906 -25.566406 50.976562 -25.460938 52.9375 -25.390625 C 54.894531 -25.328125 57.222656 -25.296875 59.921875 -25.296875 C 75.703125 -25.296875 87.40625 -29.273438 95.03125 -37.234375 C 102.65625 -45.203125 106.46875 -56.203125 106.46875 -70.234375 C 106.46875 -84.941406 102.820312 -96.070312 95.53125 -103.625 C 88.25 -111.1875 76.710938 -114.96875 60.921875 -114.96875 C 58.765625 -114.96875 56.539062 -114.929688 54.25 -114.859375 C 51.957031 -114.796875 49.796875 -114.632812 47.765625 -114.375 Z M 139.0625 -70.234375 C 139.0625 -58.085938 137.171875 -47.492188 133.390625 -38.453125 C 129.617188 -29.410156 124.253906 -21.921875 117.296875 -15.984375 C 110.347656 -10.046875 101.878906 -5.59375 91.890625 -2.625 C 81.910156 0.34375 70.710938 1.828125 58.296875 1.828125 C 52.628906 1.828125 46.015625 1.585938 38.453125 1.109375 C 30.898438 0.640625 23.476562 -0.335938 16.1875 -1.828125 L 16.1875 -138.453125 C 23.476562 -139.804688 31.070312 -140.71875 38.96875 -141.1875 C 46.863281 -141.65625 53.644531 -141.890625 59.3125 -141.890625 C 71.320312 -141.890625 82.21875 -140.539062 92 -137.84375 C 101.78125 -135.144531 110.179688 -130.894531 117.203125 -125.09375 C 124.222656 -119.289062 129.617188 -111.867188 133.390625 -102.828125 C 137.171875 -93.785156 139.0625 -82.921875 139.0625 -70.234375 Z M 139.0625 -70.234375 "/></g></g></g><g fill="#000000" fill-opacity="1"><g transform="translate(329.592811, 480.53293)"><g><path d="M 54.453125 -24.09375 C 58.898438 -24.09375 62.570312 -24.460938 65.46875 -25.203125 C 68.375 -25.941406 70.703125 -26.953125 72.453125 -28.234375 C 74.210938 -29.515625 75.429688 -31.03125 76.109375 -32.78125 C 76.785156 -34.539062 77.125 -36.5 77.125 -38.65625 C 77.125 -43.25 74.960938 -47.0625 70.640625 -50.09375 C 66.328125 -53.132812 58.90625 -56.410156 48.375 -59.921875 C 43.789062 -61.535156 39.203125 -63.390625 34.609375 -65.484375 C 30.023438 -67.578125 25.910156 -70.207031 22.265625 -73.375 C 18.617188 -76.550781 15.648438 -80.398438 13.359375 -84.921875 C 11.066406 -89.441406 9.921875 -94.9375 9.921875 -101.40625 C 9.921875 -107.882812 11.132812 -113.722656 13.5625 -118.921875 C 15.988281 -124.117188 19.425781 -128.535156 23.875 -132.171875 C 28.332031 -135.816406 33.734375 -138.617188 40.078125 -140.578125 C 46.421875 -142.535156 53.570312 -143.515625 61.53125 -143.515625 C 70.976562 -143.515625 79.144531 -142.5 86.03125 -140.46875 C 92.914062 -138.445312 98.582031 -136.222656 103.03125 -133.796875 L 93.921875 -108.90625 C 90.003906 -110.925781 85.648438 -112.710938 80.859375 -114.265625 C 76.078125 -115.816406 70.3125 -116.59375 63.5625 -116.59375 C 56 -116.59375 50.566406 -115.546875 47.265625 -113.453125 C 43.960938 -111.359375 42.3125 -108.15625 42.3125 -103.84375 C 42.3125 -101.28125 42.914062 -99.117188 44.125 -97.359375 C 45.34375 -95.609375 47.0625 -94.023438 49.28125 -92.609375 C 51.507812 -91.191406 54.070312 -89.910156 56.96875 -88.765625 C 59.875 -87.617188 63.082031 -86.4375 66.59375 -85.21875 C 73.882812 -82.519531 80.226562 -79.851562 85.625 -77.21875 C 91.019531 -74.59375 95.503906 -71.523438 99.078125 -68.015625 C 102.660156 -64.503906 105.328125 -60.382812 107.078125 -55.65625 C 108.835938 -50.9375 109.71875 -45.203125 109.71875 -38.453125 C 109.71875 -25.367188 105.128906 -15.21875 95.953125 -8 C 86.773438 -0.78125 72.941406 2.828125 54.453125 2.828125 C 48.242188 2.828125 42.640625 2.457031 37.640625 1.71875 C 32.648438 0.976562 28.234375 0.0703125 24.390625 -1 C 20.546875 -2.082031 17.238281 -3.234375 14.46875 -4.453125 C 11.707031 -5.671875 9.378906 -6.816406 7.484375 -7.890625 L 16.390625 -33 C 20.578125 -30.695312 25.738281 -28.632812 31.875 -26.8125 C 38.019531 -25 45.546875 -24.09375 54.453125 -24.09375 Z M 54.453125 -24.09375 "/></g></g></g><g fill="#ff914d" fill-opacity="1"><g transform="translate(447.389137, 480.53293)"><g><path d="M 57.890625 0 C 52.359375 -11.738281 46.894531 -23.953125 41.5 -36.640625 C 36.101562 -49.328125 30.972656 -61.875 26.109375 -74.28125 C 21.253906 -86.695312 16.769531 -98.570312 12.65625 -109.90625 C 8.539062 -121.25 5 -131.375 2.03125 -140.28125 L 36.84375 -140.28125 C 39.539062 -132.1875 42.472656 -123.445312 45.640625 -114.0625 C 48.816406 -104.6875 52.054688 -95.34375 55.359375 -86.03125 C 58.671875 -76.71875 61.878906 -67.8125 64.984375 -59.3125 C 68.085938 -50.8125 70.988281 -43.457031 73.6875 -37.25 C 76.25 -43.457031 79.113281 -50.8125 82.28125 -59.3125 C 85.457031 -67.8125 88.695312 -76.71875 92 -86.03125 C 95.300781 -95.34375 98.535156 -104.6875 101.703125 -114.0625 C 104.878906 -123.445312 107.816406 -132.1875 110.515625 -140.28125 L 144.125 -140.28125 C 141.019531 -131.375 137.441406 -121.25 133.390625 -109.90625 C 129.347656 -98.570312 124.894531 -86.695312 120.03125 -74.28125 C 115.175781 -61.875 110.050781 -49.328125 104.65625 -36.640625 C 99.257812 -23.953125 93.789062 -11.738281 88.25 0 Z M 57.890625 0 "/></g></g></g><g fill="#ff914d" fill-opacity="1"><g transform="translate(593.539008, 480.53293)"><g><path d="M 16.1875 0 L 16.1875 -140.28125 L 110.921875 -140.28125 L 110.921875 -113.765625 L 47.765625 -113.765625 L 47.765625 -86.234375 L 103.84375 -86.234375 L 103.84375 -60.328125 L 47.765625 -60.328125 L 47.765625 -26.515625 L 115.578125 -26.515625 L 115.578125 0 Z M 16.1875 0 "/></g></g></g><g fill="#ff914d" fill-opacity="1"><g transform="translate(716.207738, 480.53293)"><g><path d="M 110.3125 0 C 101.269531 -16.0625 91.488281 -31.914062 80.96875 -47.5625 C 70.445312 -63.21875 59.242188 -78 47.359375 -91.90625 L 47.359375 0 L 16.1875 0 L 16.1875 -140.28125 L 41.90625 -140.28125 C 46.351562 -135.820312 51.273438 -130.351562 56.671875 -123.875 C 62.078125 -117.40625 67.578125 -110.492188 73.171875 -103.140625 C 78.773438 -95.785156 84.34375 -88.160156 89.875 -80.265625 C 95.40625 -72.367188 100.601562 -64.773438 105.46875 -57.484375 L 105.46875 -140.28125 L 136.84375 -140.28125 L 136.84375 0 Z M 110.3125 0 "/></g></g></g><g fill="#ff914d" fill-opacity="1"><g transform="translate(869.240016, 480.53293)"><g><path d="M 120.234375 -140.28125 L 120.234375 -113.359375 L 77.9375 -113.359375 L 77.9375 0 L 46.359375 0 L 46.359375 -113.359375 L 4.046875 -113.359375 L 4.046875 -140.28125 Z M 120.234375 -140.28125 "/></g></g></g><g fill="#ff914d" fill-opacity="1"><g transform="translate(993.52813, 480.53293)"><g><path d="M 16.1875 0 L 16.1875 -140.28125 L 110.921875 -140.28125 L 110.921875 -113.765625 L 47.765625 -113.765625 L 47.765625 -86.234375 L 103.84375 -86.234375 L 103.84375 -60.328125 L 47.765625 -60.328125 L 47.765625 -26.515625 L 115.578125 -26.515625 L 115.578125 0 Z M 16.1875 0 "/></g></g></g><g fill="#ff914d" fill-opacity="1"><g transform="translate(1116.196844, 480.53293)"><g><path d="M 54.453125 -24.09375 C 58.898438 -24.09375 62.570312 -24.460938 65.46875 -25.203125 C 68.375 -25.941406 70.703125 -26.953125 72.453125 -28.234375 C 74.210938 -29.515625 75.429688 -31.03125 76.109375 -32.78125 C 76.785156 -34.539062 77.125 -36.5 77.125 -38.65625 C 77.125 -43.25 74.960938 -47.0625 70.640625 -50.09375 C 66.328125 -53.132812 58.90625 -56.410156 48.375 -59.921875 C 43.789062 -61.535156 39.203125 -63.390625 34.609375 -65.484375 C 30.023438 -67.578125 25.910156 -70.207031 22.265625 -73.375 C 18.617188 -76.550781 15.648438 -80.398438 13.359375 -84.921875 C 11.066406 -89.441406 9.921875 -94.9375 9.921875 -101.40625 C 9.921875 -107.882812 11.132812 -113.722656 13.5625 -118.921875 C 15.988281 -124.117188 19.425781 -128.535156 23.875 -132.171875 C 28.332031 -135.816406 33.734375 -138.617188 40.078125 -140.578125 C 46.421875 -142.535156 53.570312 -143.515625 61.53125 -143.515625 C 70.976562 -143.515625 79.144531 -142.5 86.03125 -140.46875 C 92.914062 -138.445312 98.582031 -136.222656 103.03125 -133.796875 L 93.921875 -108.90625 C 90.003906 -110.925781 85.648438 -112.710938 80.859375 -114.265625 C 76.078125 -115.816406 70.3125 -116.59375 63.5625 -116.59375 C 56 -116.59375 50.566406 -115.546875 47.265625 -113.453125 C 43.960938 -111.359375 42.3125 -108.15625 42.3125 -103.84375 C 42.3125 -101.28125 42.914062 -99.117188 44.125 -97.359375 C 45.34375 -95.609375 47.0625 -94.023438 49.28125 -92.609375 C 51.507812 -91.191406 54.070312 -89.910156 56.96875 -88.765625 C 59.875 -87.617188 63.082031 -86.4375 66.59375 -85.21875 C 73.882812 -82.519531 80.226562 -79.851562 85.625 -77.21875 C 91.019531 -74.59375 95.503906 -71.523438 99.078125 -68.015625 C 102.660156 -64.503906 105.328125 -60.382812 107.078125 -55.65625 C 108.835938 -50.9375 109.71875 -45.203125 109.71875 -38.453125 C 109.71875 -25.367188 105.128906 -15.21875 95.953125 -8 C 86.773438 -0.78125 72.941406 2.828125 54.453125 2.828125 C 48.242188 2.828125 42.640625 2.457031 37.640625 1.71875 C 32.648438 0.976562 28.234375 0.0703125 24.390625 -1 C 20.546875 -2.082031 17.238281 -3.234375 14.46875 -4.453125 C 11.707031 -5.671875 9.378906 -6.816406 7.484375 -7.890625 L 16.390625 -33 C 20.578125 -30.695312 25.738281 -28.632812 31.875 -26.8125 C 38.019531 -25 45.546875 -24.09375 54.453125 -24.09375 Z M 54.453125 -24.09375 "/></g></g></g></svg>